<?xml version="1.0" standalone="no"?>
<!DOCTYPE svg PUBLIC "-//W3C//DTD SVG 20010904//EN"
 "http://www.w3.org/TR/2001/REC-SVG-20010904/DTD/svg10.dtd">
<svg version="1.0" xmlns="http://www.w3.org/2000/svg"
 width="240.000000pt" height="240.000000pt" viewBox="0 0 240.000000 240.000000"
 preserveAspectRatio="xMidYMid meet">

<g transform="translate(0.000000,240.000000) scale(0.100000,-0.100000)"
fill="#000000" stroke="none">
<path d="M1080 2394 c-14 -2 -56 -9 -95 -15 -226 -37 -455 -158 -631 -333
-170 -170 -275 -363 -331 -608 -23 -102 -23 -374 0 -476 56 -245 161 -438 331
-608 170 -170 363 -275 608 -331 102 -23 374 -23 476 0 245 56 438 161 608
331 170 170 275 363 331 608 23 102 23 374 0 476 -56 245 -161 438 -331 608
-171 170 -370 279 -608 330 -70 15 -307 27 -358 18z m362 -223 c182 -48 331
-133 463 -266 132 -131 216 -278 267 -463 29 -104 31 -362 5 -466 -33 -130
-100 -273 -175 -374 l-25 -33 -19 29 c-25 41 -100 78 -204 103 -227 53 -319
103 -331 181 -4 30 4 57 50 155 134 290 158 492 76 660 -37 76 -109 144 -187
174 -46 19 -77 23 -162 23 -85 0 -116 -4 -162 -23 -112 -44 -200 -152 -227
-279 -31 -148 4 -315 116 -555 46 -98 54 -125 50 -155 -12 -77 -111 -131 -331
-182 -103 -24 -172 -58 -202 -101 l-21 -30 -25 33 c-199 266 -252 626 -138
940 119 328 414 577 763 644 102 19 319 12 419 -15z"/>
</g>
</svg>
